<svg xmlns="http://www.w3.org/2000/svg" xmlns:xlink="http://www.w3.org/1999/xlink" width="500" zoomAndPan="magnify" viewBox="0 0 375 374.999991" height="500" preserveAspectRatio="xMidYMid meet" version="1.0"><path fill="#000000" d="M 127.5 186 L 130.5 186 L 130.5 189 L 127.5 189 M 133.5 186 L 136.5 186 L 136.5 189 L 133.5 189 M 139.5 186 L 142.5 186 L 142.5 189 L 139.5 189 M 145.5 186 L 148.5 186 L 148.5 189 L 145.5 189 M 151.5 186 L 154.5 186 L 154.5 189 L 151.5 189 M 157.5 186 L 160.5 186 L 160.5 189 L 157.5 189 M 163.5 186 L 166.5 186 L 166.5 189 L 163.5 189 M 169.5 186 L 172.5 186 L 172.5 189 L 169.5 189 M 175.5 186 L 178.5 186 L 178.5 189 L 175.5 189 M 181.5 186 L 184.5 186 L 184.5 189 L 181.5 189 M 187.5 186 L 190.5 186 L 190.5 189 L 187.5 189 M 193.5 186 L 196.5 186 L 196.5 189 L 193.5 189 M 199.5 186 L 202.5 186 L 202.5 189 L 199.5 189 M 205.5 186 L 208.5 186 L 208.5 189 L 205.5 189 M 211.5 186 L 214.5 186 L 214.5 189 L 211.5 189 M 217.5 186 L 220.5 186 L 220.5 189 L 217.5 189 M 223.5 186 L 226.5 186 L 226.5 189 L 223.5 189 M 229.5 186 L 232.5 186 L 232.5 189 L 229.5 189 M 235.5 186 L 238.5 186 L 238.5 189 L 235.5 189 M 241.5 186 L 244.5 186 L 244.5 189 L 241.5 189 " fill-opacity="1" fill-rule="nonzero"/><path stroke-linecap="round" transform="matrix(3, 0, 0, 3, 247.499988, 187.499988)" fill="none" stroke-linejoin="round" d="M -2.499996 -1.499996 L -0.499996 0.00000410417 L -2.499996 1.500004 " stroke="#000000" stroke-width="1" stroke-opacity="1" stroke-miterlimit="4"/></svg>